<svg xmlns="http://www.w3.org/2000/svg" viewBox="0 0 24 16" id="ico-vkontakte" width="100%" height="100%"><path fill-rule="evenodd" d="M12.801 15.998c.799 0 .799-1.244.799-1.777 0-.889.799-1.778 1.598-1.778.8 0 2.158 1.511 3.197 2.667.799.888.799.888 1.599.888h2.397s1.599-.089 1.599-1.777c0-.533-.56-1.511-2.398-3.556-1.598-1.777-2.398-.888 0-4.444 1.439-2.223 2.558-4.178 2.398-4.712-.16-.533-4.236-1.422-4.796-.621-1.598 2.665-1.918 3.288-2.397 4.444-.799 1.778-.879 2.667-1.599 2.667-.719 0-.799-1.689-.799-2.667 0-2.933.4-4.978-.799-5.334h-2.398c-1.279 0-2.397.89-2.397.89s-.96.888-.8.888c.24 0 1.599-.356 1.599.889v1.778s0 3.556-.799 3.556c-.8 0-2.398-3.556-3.997-6.223C4.169.71 4.009.888 3.21.888H.812c-.799 0-.879.532-.799.888 1.598 4.445 2.717 7.2 5.754 10.756 2.798 3.2 4.636 3.377 6.234 3.466h.8z"></path></svg>